# xmcd
#
# Track frame offsets:
#	150
#	15984
#	34412
#	57926
#	76574
#	93449
#	115734
#	134758
#	150592
#	166458
#	183827
#	203723
#	221751
#	237343
#	256365
#	267900
#	292055
#	306966
#	320567
#	342332
#
# Disc length: 4779 seconds
#
# Revision: 0
# Processed by: cddbd v1.5.2PL0 Copyright (c) Steve Scherf et al.
# Submitted via: EasyCDDAExtractor 2010.6.0.0
#
DISCID=2012a914
DTITLE=Various Artist - Magic Of The Seventies cd 3
DYEAR=2013
DGENRE=Pop
TTITLE0=Fleetwood Mac - You Make Lovin' Fun
TTITLE1=The Beach Boys - Tears In The Morning
TTITLE2=Bad Company - Feel Like Makin' Love
TTITLE3=Cockney Rebel - Sebastian
TTITLE4=Barclay James Harvest - Titles
TTITLE5=Styx - Sing For The Day
TTITLE6=Commodores - Easy
TTITLE7=Status Quo - Rockin' All Over The World
TTITLE8=Creedence Clearwater Revival - Long As I Can See The Light
TTITLE9=Hot Chocolate - Emma
TTITLE10=T-Rex - Get It On
TTITLE11=The Babys - Everytime I Think Of You
TTITLE12=Focus - Sylvia
TTITLE13=Marmalade - Reflections Of My Life
TTITLE14=Brian Hyland - Gypsy Woman
TTITLE15=10cc - I'm Mandy Fly Me
TTITLE16=M - Pop Muzik
TTITLE17=Tony Joe White - Groupy Girl
TTITLE18=Earth, Wind and Fire - Boogie Wonderland
TTITLE19=Abba - Summer Night City
EXTD=
EXTT0=
EXTT1=
EXTT2=
EXTT3=
EXTT4=
EXTT5=
EXTT6=
EXTT7=
EXTT8=
EXTT9=
EXTT10=
EXTT11=
EXTT12=
EXTT13=
EXTT14=
EXTT15=
EXTT16=
EXTT17=
EXTT18=
EXTT19=
PLAYORDER=
